<svg height="512pt" viewBox="-4 0 512 512.00005" width="512pt" xmlns="http://www.w3.org/2000/svg"><path d="m134.941406 486.664062h90.671875l-5.976562-64.953124c-1.597657-17.375-12.164063-32.648438-27.859375-40.273438l-46.792969-22.730469-41.59375-43.953125c-3.953125-4.089844-10.273437-5.074218-15.09375-2.058594-5.378906 3.367188-7.152344 10.296876-4.152344 15.804688l13.320313 20.691406-6.984375-3.40625c-15.066407-7.34375-28.242188-18.046875-38.519531-31.285156-5.230469-6.742188-9.65625-14.066406-13.183594-21.832031l-9.777344-21.515625c-2.207031-4.851563-7.515625-7.492188-12.714844-6.320313-6.273437 1.414063-10.085937 7.789063-8.367187 13.984375l10.285156 37.019532c4.34375 13.691406 20.703125 45.75 30.929687 55.835937 22.355469 22.050781 62.769532 44.011719 74.496094 56.6875 12.582032 13.601563 11.3125 58.304687 11.3125 58.304687zm0 0" fill="#fcd7c3"/><path d="m219.636719 421.710938c-1.597657-17.375-12.164063-32.648438-27.859375-40.273438l-46.792969-22.730469-41.59375-43.953125c-3.953125-4.089844-10.273437-5.074218-15.09375-2.058594-5.378906 3.367188-7.152344 10.296876-4.152344 15.804688l13.320313 20.691406 31.738281 32.246094s27.105469 32.09375 28.707031 49.464844l5.128906 55.761718h62.574219zm0 0" fill="#f9c7ac"/><path d="m133.617188 459.234375h91.847656c5.460937 0 9.886718 4.425781 9.886718 9.886719v25.492187c0 5.460938-4.425781 9.886719-9.886718 9.886719h-91.847656c-5.457032 0-9.882813-4.425781-9.882813-9.886719v-25.492187c0-5.460938 4.425781-9.886719 9.882813-9.886719zm0 0" fill="#0d6e9a"/><path d="m368.984375 486.664062h-90.671875l5.976562-64.953124c1.597657-17.375 12.164063-32.648438 27.859376-40.273438l46.792968-22.730469 41.59375-43.953125c3.953125-4.089844 10.273438-5.074218 15.09375-2.058594 5.378906 3.367188 7.152344 10.296876 4.152344 15.804688l-13.316406 20.691406 6.980468-3.40625c15.066407-7.34375 28.242188-18.046875 38.519532-31.285156 5.230468-6.742188 9.65625-14.066406 13.183594-21.832031l9.777343-21.515625c2.207031-4.851563 7.515625-7.492188 12.714844-6.320313 6.273437 1.414063 10.085937 7.789063 8.367187 13.984375l-10.285156 37.019532c-4.34375 13.691406-20.703125 45.75-30.929687 55.835937-22.355469 22.050781-62.769531 44.011719-74.496094 56.6875-12.582031 13.601563-11.3125 58.304687-11.3125 58.304687zm0 0" fill="#fcd7c3"/><path d="m487.640625 264.832031-27.425781 67.757813c-28.035156 38.046875-131.171875 83.09375-142.898438 95.769531-12.582031 13.601563-11.316406 58.304687-11.316406 58.304687h62.984375s-1.269531-44.703124 11.316406-58.304687c11.726563-12.675781 52.140625-34.640625 74.496094-56.6875 10.226563-10.085937 26.585937-42.144531 30.929687-55.835937l10.285157-37.019532c1.71875-6.195312-2.097657-12.574218-8.371094-13.984375zm0 0" fill="#f9c7ac"/><path d="m370.308594 459.234375h-91.847656c-5.460938 0-9.886719 4.425781-9.886719 9.886719v25.492187c0 5.460938 4.425781 9.886719 9.886719 9.886719h91.847656c5.457031 0 9.882812-4.425781 9.882812-9.886719v-25.492187c0-5.460938-4.425781-9.886719-9.882812-9.886719zm0 0" fill="#0d6e9a"/><path d="m289.175781 11.765625c-89.179687-20.546875-178.128906 35.09375-198.675781 124.273437-20.542969 89.179688 35.097656 178.128907 124.277344 198.675782 89.179687 20.542968 178.128906-35.097656 198.671875-124.277344 20.546875-89.179688-35.09375-178.128906-124.273438-198.671875zm0 0" fill="#69e6ed"/><path d="m289.15625 11.765625c-23.433594-5.398437-46.847656-5.527344-69.015625-1.179687 1.867187.363281 3.734375.75 5.605469 1.179687 89.179687 20.539063 144.820312 109.488281 124.277344 198.664063-15.140626 65.746093-67.464844 113.253906-129.652344 125.457031 87.273437 17.003906 172.953125-38.148438 193.0625-125.457031 20.542968-89.175782-35.097656-178.125-124.277344-198.664063zm0 0" fill="#33d8dd"/><path d="m262.472656 227.40625c-19.125-4.875-32.035156-66.164062-73.769531-55.808594-13.355469 3.3125-49.796875-26.949218-45.960937-35.628906 9.308593-21.066406-9.753907-28.417969.136718-40.804688 5.378906-6.734374 12.054688-14.175781 20.726563-6.839843 8.667969 7.332031 5.480469 22.582031 13.246093 24.058593 7.761719 1.472657 13.058594-16.554687 17.71875-26.742187 16.78125-36.691406 64.101563-24.792969 79.507813-39.441406 11.710937-11.140625 16.488281-24.628907 14.597656-34.539063-88.242187-20.054687-176.125 34.410156-197.621093 122.074219 14.820312 24.4375 49.335937 44.90625 60.460937 52.507813 3.640625 2.488281 4.757813 7.355468 2.519531 11.15625-6.34375 10.769531-15.058594 32.378906 4.371094 48.414062 26.90625 22.207031 26.886719 32.503906 15.949219 55.472656-2.765625 5.804688-4.84375 10.675782-6.421875 14.808594 11.875 6.980469 24.792968 12.574219 38.589844 16.496094 10.460937-15.398438 29.207031-28.609375 38.539062-32.746094 16.078125-7.125 48.03125-5.03125 55.878906-39.09375 3.726563-16.183594-19.34375-28.46875-38.46875-33.34375zm0 0" fill="#8fd143"/><path d="m225.746094 11.765625c20.835937 4.796875 39.839844 13.335937 56.472656 24.734375 5.691406-8.660156 7.820312-17.683594 6.457031-24.839844-23.269531-5.289062-46.515625-5.390625-68.523437-1.070312 1.863281.359375 3.730468.746094 5.59375 1.175781zm0 0" fill="#7bb72e"/><path d="m413.433594 210.429688c16.707031-72.535157-16.984375-144.910157-78.125-180.457032-10.300782 26.121094 21.300781 36.867188 17.949218 45.472656-1.386718 3.558594-.511718 8.085938.9375 12.101563 2.160157 5.980469.441407 12.671875-4.5 16.679687-8.5 6.894532-20.027343 18.132813-22.265624 29.824219-5.5 28.699219 4.316406 40.722657 14.964843 49.511719 16.492188 13.613281 28.980469 8.84375 35.699219 18.839844 14.558594 21.652344-52.925781 78.992187-30.214844 105.9375 31.96875-22.675782 56.066406-56.707032 65.554688-97.910156zm0 0" fill="#8fd143"/><path d="m413.433594 210.429688c16.707031-72.535157-16.984375-144.910157-78.125-180.457032-10.300782 26.121094 21.300781 36.867188 17.949218 45.472656-1.386718 3.558594-.511718 8.085938.9375 12.101563 2.160157 5.980469.441407 12.671875-4.5 16.679687-2.378906 1.929688-4.996093 4.210938-7.582031 6.738282 10.007813 24.625 14.191407 51.84375 11.242188 79.582031 11.089843 5.191406 19.601562 4.214844 24.738281 11.855469 14.558594 21.652344-52.925781 78.992187-30.214844 105.941406 31.96875-22.675781 56.066406-56.710938 65.554688-97.914062zm0 0" fill="#7bb72e"/><path d="m353.039062 313.789062c101.863282-73.109374 94.277344-226.792968-13.40625-290.035156-.328124-.230468-.683593-.433594-1.058593-.609375-63.96875-36.960937-145.984375-29.503906-202.507813 21.316407-3.082031 2.769531-3.335937 7.511718-.566406 10.589843 2.769531 3.082031 7.511719 3.332031 10.59375.5625 36.839844-33.121093 87.0625-47.039062 135.449219-37.847656-.691407 8.171875-6.382813 17.019531-12.601563 22.933594-12.214844 11.617187-62.796875 1.59375-81.167968 41.761719-2.566407 5.601562-6.105469 15.550781-9.285157 20.535156-1.613281-5.625-2.929687-14.460938-10.019531-20.457032-4.253906-3.597656-8.804688-5.1875-13.527344-4.730468-8.492187.832031-14.382812 8.210937-17.90625 12.617187-7.441406 9.320313-4.128906 17.6875-1.714844 23.800781 2.238282 5.652344 4.167969 10.53125.574219 18.660157-3.445312 7.800781 3.710938 16.316406 6.0625 19.113281 9.640625 11.46875 33.832031 30.484375 48.574219 26.832031 35.980469-8.945312 46.167969 49.695313 70.121094 55.804688 17.9375 4.574219 35.191406 14.949219 33.015625 24.398437-6.703125 29.09375-34.308594 26.25-51.617188 33.921875-9.53125 4.226563-26.792969 16.222657-38.378906 30.898438-9.148437-2.917969-17.9375-6.625-26.285156-11.070313 1.132812-2.640625 2.378906-5.402344 3.757812-8.304687 12.535157-26.3125 11.707031-40.011719-17.945312-64.488281-14.210938-11.730469-9.304688-27.59375-2.683594-38.832032 4.21875-7.160156 2.132813-16.453125-4.75-21.152344-10.695313-7.316406-42.015625-26.066406-56.628906-47.644531 5.382812-20.246093 14.527343-38.878906 27.246093-55.449219 2.523438-3.289062 1.902344-7.996093-1.382812-10.519531-3.289062-2.523437-7.996094-1.902343-10.515625 1.382813-41.910156 54.605468-49.46875 133.144531-9.347656 197.28125 52.867187 84.511718 165.15625 106.65625 246.207031 49.925781.769531-.394531 1.230469-.761719 1.695312-1.195313zm-2.175781-17.160156c-1.28125-11.582031 9.214844-28.957031 18.6875-44.632812 12.417969-20.546875 24.144531-39.953125 14.820313-53.824219-8.839844-13.144531-21.886719-7.839844-37.15625-20.441406-8.949219-7.386719-17.277344-16.738281-12.375-42.320313 1.386718-7.25 8.359375-16.277344 19.628906-25.417968 7.34375-5.957032 10.089844-16.027344 6.828125-25.054688-1.300781-3.601562-1.355469-5.929688-1.003906-6.832031 5.382812-13.816407-17.414063-21.253907-19.390625-35.898438 88.410156 59.96875 92.742187 188.257813 9.960937 254.421875zm-255.605469-145.050781c17.101563 18.929687 40.582032 32.972656 52.046876 40.816406.394531.265625.515624.761719.289062 1.152344-13.351562 22.667969-11.144531 43.816406 6.058594 58.015625 28.457031 23.488281 21.703125 28.539062 10.746094 53.476562-48.734376-32.347656-77.816407-91.347656-69.140626-153.460937zm124.554688 176.519531c9.304688-9.9375 21.339844-18.332031 28.320312-21.425781 14.292969-6.332031 51.230469-5.519531 60.15625-44.273437 4.675782-20.292969-18.691406-35.867188-43.925781-42.300782-13.753906-3.507812-30.570312-67.460937-77.441406-55.828125-.945313.222657-5.582031-.332031-14.261719-5.730469-12.097656-7.527343-20.886718-17.21875-22.488281-20.894531 5.328125-13.183593 1.597656-22.625-.898437-28.9375-2.292969-5.800781-2.339844-6.632812-.515626-8.917969 1.351563-1.691406 5.460938-6.835937 7.644532-7.050781.503906-.058593 1.394531.417969 2.378906 1.253907 6.1875 5.234374 3.03125 23.105468 16.691406 25.703124 14.609375 2.773438 20.421875-18.921874 25.941406-30.996093 14.949219-32.683594 59.691407-19.84375 77.867188-37.132813 9.441406-8.980468 15.402344-19.886718 16.933594-30.292968 10.574218 3.066406 20.691406 7.171874 30.238281 12.242187-4.585937 21.84375 14.363281 34.386719 19.300781 40.851563-1.203125 4.4375-.722656 9.699218 1.433594 15.664062 1.09375 3.03125.222656 6.371094-2.167969 8.308594-9.914062 8.039062-22.28125 20.507812-24.914062 34.246094-6.152344 32.125 5.425781 46.695312 17.558593 56.714843 28.203126 23.277344 52.351563-.175781 19.046876 54.933594-12.492188 20.671875-26.441407 43.765625-18.902344 61.78125-33.792969 21.828125-75.796875 30.863281-117.996094 22.082031zm0 0"/><path d="m118.996094 434.5c1.464844 2.03125 3.757812 3.109375 6.085937 3.109375 6 0 9.703125-6.867187 6.074219-11.890625-9.847656-13.644531-53.46875-36.441406-76.753906-59.40625-9.03125-8.910156-24.859375-39.679688-29.011719-52.648438l-10.246094-36.886718c-1.179687-4.25 5.015625-6.972656 7.179688-2.214844 11.941406 25.460938 12.964843 30.652344 18.953125 38.367188 13.765625 17.738281 31.636718 32.363281 51.730468 42.386718l31.941407 32.117188c1.464843 1.476562 3.390625 2.210937 5.316406 2.210937 6.625 0 10.027344-8.054687 5.320313-12.789062l-32.234376-32.414063-12.707031-19.742187c-2.140625-4.40625 3.550781-8.707031 7.3125-4.820313 43.605469 45.84375 41.519531 44.460938 43.769531 45.554688l46.800782 22.734375c25.546875 12.410156 23.71875 39.46875 24.328125 41.394531.378906 4.125 4.019531 7.152344 8.15625 6.78125 4.128906-.378906 7.164062-4.03125 6.785156-8.15625l-.660156-7.179688c-1.828125-19.863281-14.113281-37.621093-32.054688-46.335937l-45.570312-22.136719-40.714844-43.027344c-6.464844-6.683593-16.753906-8.03125-24.46875-3.203124-6.960937 4.355468-10.25 12.46875-8.773437 20.148437-8.335938-6.664063-15.894532-14.308594-22.429688-22.722656-4.304688-5.546875-4.4375-8.070313-17.144531-35.378907-3.738281-8.226562-12.699219-12.800781-21.308594-10.882812-10.464844 2.335938-16.855469 12.988281-13.984375 23.320312 13.804688 49.6875 9.421875 34.292969 10.363281 37.285157 4.730469 14.910156 21.667969 47.925781 32.816407 58.914062 12.699218 12.527344 30.527343 24.699219 46.253906 35.4375 6.523437 4.453125 25.039062 16.765625 28.875 22.074219zm0 0"/><path d="m491.226562 258c-9.15625-3.074219-19.070312 1.234375-23.0625 10.011719-12.835937 27.597656-12.976562 30.15625-17.296874 35.71875-6.535157 8.417969-14.09375 16.0625-22.429688 22.726562 1.476562-7.679687-1.816406-15.796875-8.773438-20.148437-7.710937-4.828125-18.003906-3.484375-24.523437 3.257812l-40.660156 42.96875-45.566407 22.136719c-34 16.515625-32.058593 51.730469-32.746093 53.828125-.378907 4.128906 2.65625 7.777344 6.78125 8.15625 4.117187.382812 7.777343-2.65625 8.15625-6.78125.605469-1.917969-1.234375-29.277344 24.363281-41.707031 48.976562-23.976563 47.199219-22.457031 48.96875-24.324219l41.542969-43.90625c3.859375-3.988281 9.496093.378906 7.363281 4.761719l-12.703125 19.742187-32.234375 32.414063c-4.710938 4.734375-1.300781 12.789062 5.320312 12.789062 5.695313 0 5.929688-3.890625 37.257813-34.332031 29.15625-14.539062 51.507813-38.5625 57.84375-52.5l12.996094-28.59375c1.871093-4.121094 8.304687-2.046875 6.929687 2.90625l-10.152344 36.535156c-4.152343 12.972656-19.980468 43.742188-29.007812 52.648438-23.226562 22.910156-66.769531 45.671875-76.691406 59.316406-3.632813 4.984375.003906 11.917969 6.058594 11.917969 2.316406 0 4.601562-1.070313 6.070312-3.089844 7.546875-10.363281 51.25-33.941406 75.09375-57.460937 11.144531-10.992188 28.085938-44.007813 32.816406-58.917969.945313-3-2.929687 10.554687 10.265625-36.933594 2.722657-9.804687-2.539062-19.96875-11.980469-23.140625zm0 0"/><path d="m225.496094 451.726562h-91.859375c-9.589844 0-17.390625 7.800782-17.390625 17.390626v25.496093c0 9.585938 7.800781 17.386719 17.390625 17.386719h91.859375c9.585937 0 17.386718-7.800781 17.386718-17.386719v-25.496093c0-9.589844-7.800781-17.390626-17.386718-17.390626zm2.386718 42.886719c0 1.316407-1.070312 2.386719-2.386718 2.386719h-91.859375c-1.316407 0-2.386719-1.070312-2.386719-2.386719v-25.496093c0-1.316407 1.070312-2.386719 2.386719-2.386719h91.859375c1.316406 0 2.386718 1.070312 2.386718 2.386719zm0 0"/><path d="m370.359375 451.726562h-91.863281c-9.585938 0-17.386719 7.800782-17.386719 17.390626v25.496093c0 9.585938 7.800781 17.386719 17.386719 17.386719h91.863281c9.585937 0 17.386719-7.800781 17.386719-17.386719v-25.496093c0-9.589844-7.800782-17.390626-17.386719-17.390626zm2.382813 42.886719c0 1.316407-1.066407 2.386719-2.382813 2.386719h-91.863281c-1.3125 0-2.382813-1.070312-2.382813-2.386719v-25.496093c0-1.316407 1.070313-2.386719 2.382813-2.386719h91.863281c1.316406 0 2.382813 1.070312 2.382813 2.386719zm0 0"/></svg>